HIERARCHY
ROOT Hips
{
	OFFSET 0.00000 0.00000 0.00000
	CHANNELS 6 Xposition Yposition Zposition Zrotation Yrotation Xrotation 
	JOINT LHipJoint
	{
		OFFSET 0 0 0
		CHANNELS 3 Zrotation Yrotation Xrotation
		JOINT LeftHip
		{
			OFFSET 1.55766 -1.60504 1.11378
			CHANNELS 3 Zrotation Yrotation Xrotation
			JOINT LeftKnee
			{
				OFFSET 2.29047 -6.29302 0.00000
				CHANNELS 3 Zrotation Yrotation Xrotation
				JOINT LeftAnkle
				{
					OFFSET 2.52265 -6.93093 0.00000
					CHANNELS 3 Zrotation Yrotation Xrotation
					JOINT LeftToe
					{
						OFFSET 0.17633 -0.48446 2.02656
						CHANNELS 3 Zrotation Yrotation Xrotation
						End Site
						{
							OFFSET 0.00000 -0.00000 1.04989
						}
					}
				}
			}
		}
	}
	JOINT RHipJoint
	{
		OFFSET 0 0 0
		CHANNELS 3 Zrotation Yrotation Xrotation
		JOINT RightHip
		{
			OFFSET -1.48599 -1.60504 1.11378
			CHANNELS 3 Zrotation Yrotation Xrotation
			JOINT RightKnee
			{
				OFFSET -2.27280 -6.24448 0.00000
				CHANNELS 3 Zrotation Yrotation Xrotation
				JOINT RightAnkle
				{
					OFFSET -2.50834 -6.89161 0.00000
					CHANNELS 3 Zrotation Yrotation Xrotation
					JOINT RightToe
					{
						OFFSET -0.26967 -0.74090 2.08741
						CHANNELS 3 Zrotation Yrotation Xrotation
						End Site
						{
							OFFSET -0.00000 -0.00000 1.10614
						}
					}
				}
			}
		}
	}
	JOINT lowerback
	{
		OFFSET 0 0 0
		CHANNELS 3 Zrotation Yrotation Xrotation
		JOINT Chest
		{
			OFFSET 0.06481 2.02437 -0.08472
			CHANNELS 3 Zrotation Yrotation Xrotation
			JOINT Chest2
			{
				OFFSET 0.00015 1.96711 0.18069
				CHANNELS 3 Zrotation Yrotation Xrotation
				JOINT lowerneck
				{
					OFFSET 0 0 0
					CHANNELS 3 Zrotation Yrotation Xrotation
					JOINT Neck
					{
						OFFSET -0.29961 1.68293 -0.13041
						CHANNELS 3 Zrotation Yrotation Xrotation
						JOINT Head
						{
							OFFSET 0.59697 1.61501 -0.14669
							CHANNELS 3 Zrotation Yrotation Xrotation
							End Site
							{
								OFFSET 0.22973 1.74906 -0.10148
							}
						}
					}
				}
				JOINT LeftCollar
				{
					OFFSET 0 0 0
					CHANNELS 3 Zrotation Yrotation Xrotation
					JOINT LeftShoulder
					{
						OFFSET 3.37968 1.02893 0.31147
CHANNELS 3 Zrotation Xrotation Yrotation
						JOINT LeftElbow
						{
OFFSET 0 -5.198070 -0.000000
CHANNELS 3 Zrotation Xrotation Yrotation
							JOINT LeftWrist
							{
OFFSET 0 -3.093700 -0.000000
CHANNELS 3 Zrotation Xrotation Yrotation
								JOINT lhand
								{
									OFFSET 0 0 0
CHANNELS 3 Zrotation Xrotation Yrotation
									JOINT LFingers
									{
OFFSET 0 -0.672630 -0.000000
CHANNELS 3 Zrotation Xrotation Yrotation
										End Site
										{
OFFSET 0 -0.542290 -0.000000
										}
									}
								}
								JOINT LThumb
								{
OFFSET 0 0.000000 0.000000
CHANNELS 3 Zrotation Xrotation Yrotation
									End Site
									{
OFFSET 0 -0.550570 0.550570
									}
								}
							}
						}
					}
				}
				JOINT RightCollar
				{
					OFFSET 0 0 0
					CHANNELS 3 Zrotation Yrotation Xrotation
					JOINT RightShoulder
					{
						OFFSET -3.38254 0.96355 -0.16120
CHANNELS 3 Zrotation Xrotation Yrotation
						JOINT RightElbow
						{
OFFSET 0 -5.452220 -0.000000
CHANNELS 3 Zrotation Xrotation Yrotation
							JOINT RightWrist
							{
OFFSET 0 -3.012840 -0.000000
CHANNELS 3 Zrotation Xrotation Yrotation
								JOINT rhand
								{
									OFFSET 0 0 0
CHANNELS 3 Zrotation Xrotation Yrotation
									JOINT RFingers
									{
OFFSET 0 -0.622300 -0.000000
CHANNELS 3 Zrotation Xrotation Yrotation
										End Site
										{
OFFSET 0 -0.501710 -0.000000
										}
									}
								}
								JOINT RThumb
								{
OFFSET 0 0.000000 0.000000
CHANNELS 3 Zrotation Xrotation Yrotation
									End Site
									{
OFFSET 0 -0.509370 0.509370
									}
								}
							}
						}
					}
				}
			}
		}
	}
}
MOTION
Frames: 4
Frame Time: 0.008333333333333333
-5.541800 16.322100 35.044300 -117.973000 -84.891100 128.590000 0.000000 0.000000 0.000000 -15.621800 -1.128700 -15.225500 0.682000 5.280100 14.709200 0.151400 -11.158100 -9.914300 0.703000 -5.359100 -14.935700 0.000000 0.000000 0.000000 0.000000 0.000000 0.000000 0.000000 0.000000 0.000000 -0.000000 -0.000000 0.000000 -0.000000 -0.000000 0.000000 3.981700 1.742400 -13.049000 0.350700 1.600900 -4.073600 -1.634000 0.718100 3.130000 -33.871600 -2.329100 29.001500 43.304700 -12.568800 -10.710500 28.172100 -9.673700 -2.761700 0.000000 0.000000 0.000000 3.494000 -15.798900 -49.274500 145.497000 -44.454000 105.535800 2.242100 -78.214400 0.856600 0.000000 0.000000 0.000000 -7.125000 0.000000 0.000000 -18.735000 28.862000 -7.747800 0.000000 0.000000 0.000000 2.685500 -18.836000 58.738100 -136.573400 -49.974000 -98.973200 -24.891500 -22.508500 16.301000 0.000000 0.000000 0.000000 7.125000 0.000000 -0.000000 2.785100 47.828700 -0.194500
-5.538494 16.321505 35.044961 -118.344539 -84.880324 128.946334 0.000000 0.000000 0.000000 -15.630659 -1.109396 -15.214393 0.680546 5.274679 14.693730 0.149483 -11.151092 -9.886071 0.691034 -5.314211 -14.806917 0.000000 0.000000 0.000000 0.000000 0.000000 0.000000 0.000000 0.000000 0.000000 0.000000 0.000000 0.000000 0.000000 0.000000 0.000000 4.347818 1.800577 -13.022424 0.032049 1.647177 -4.085830 -2.166716 0.740776 3.123852 -33.507730 -2.299350 29.285509 43.320038 -12.526688 -10.492204 28.101098 -9.698293 -2.820670 0.000000 0.000000 0.000000 3.887752 -16.738260 -50.700298 146.435698 -43.753100 106.187051 5.972235 -77.789245 3.168010 0.000000 0.000000 0.000000 -7.125000 0.000000 0.000000 -15.636548 26.671968 -7.128612 0.000000 0.000000 0.000000 3.574880 -19.829372 59.295277 -137.489621 -49.484454 -99.670993 -24.855272 -22.231564 15.927742 0.000000 0.000000 0.000000 7.125000 0.000000 0.000000 2.750590 47.419875 -0.164552
-5.535350 16.321168 35.045364 -118.844316 -84.874703 129.431227 0.000000 0.000000 0.000000 -15.651568 -1.096922 -15.196682 0.679027 5.268904 14.677165 0.150079 -11.121015 -9.877400 0.687510 -5.301027 -14.769093 0.000000 0.000000 0.000000 0.000000 0.000000 0.000000 0.000000 0.000000 0.000000 0.000000 0.000000 0.000000 0.000000 0.000000 0.000000 4.593239 1.866004 -13.033062 -0.197416 1.712464 -4.076119 -2.534270 0.774310 3.157367 -33.322424 -2.240957 29.589979 43.369690 -12.521532 -10.305742 28.140418 -9.740962 -2.853607 0.000000 0.000000 0.000000 4.129102 -17.707616 -52.173299 147.316626 -43.080425 106.793065 9.613635 -77.470354 5.292285 0.000000 0.000000 0.000000 -7.125000 0.000000 0.000000 -12.706351 24.581722 -6.362080 0.000000 0.000000 0.000000 4.338472 -20.861504 59.761785 -138.348103 -49.015304 -100.321648 -24.770197 -21.995162 15.738655 0.000000 0.000000 0.000000 7.125000 0.000000 0.000000 2.796632 47.203147 -0.152164
-5.532375 16.321102 35.045497 -119.478973 -84.874505 130.051341 0.000000 0.000000 0.000000 -15.685152 -1.091634 -15.172023 0.677440 5.262755 14.659447 0.153318 -11.066672 -9.889299 0.692865 -5.321191 -14.826939 0.000000 0.000000 0.000000 0.000000 0.000000 0.000000 0.000000 0.000000 0.000000 0.000000 0.000000 0.000000 0.000000 0.000000 0.000000 4.711708 1.939055 -13.082843 -0.333074 1.797746 -4.043328 -2.728105 0.819265 3.232600 -33.324937 -2.152435 29.915968 43.455435 -12.555249 -10.152763 28.295777 -9.802642 -2.859160 0.000000 0.000000 0.000000 4.210153 -18.708525 -53.695949 148.136789 -42.437437 107.351498 13.161702 -77.263230 7.219727 0.000000 0.000000 0.000000 -7.125000 0.000000 0.000000 -9.953126 22.596434 -5.440570 0.000000 0.000000 0.000000 4.969758 -21.934407 60.132928 -139.145855 -48.567606 -100.922721 -24.633746 -21.801393 15.743283 0.000000 0.000000 0.000000 7.125000 0.000000 0.000000 2.927398 47.188471 -0.158246
